<?xml version="1.0" encoding="UTF-8" standalone="no"?>
<!-- Created with Inkscape (http://www.inkscape.org/) -->

<svg
   xmlns:dc="http://purl.org/dc/elements/1.1/"
   xmlns:cc="http://creativecommons.org/ns#"
   xmlns:rdf="http://www.w3.org/1999/02/22-rdf-syntax-ns#"
   xmlns:svg="http://www.w3.org/2000/svg"
   xmlns="http://www.w3.org/2000/svg"
   xmlns:sodipodi="http://sodipodi.sourceforge.net/DTD/sodipodi-0.dtd"
   xmlns:inkscape="http://www.inkscape.org/namespaces/inkscape"
   width="146.99962mm"
   height="149.99962mm"
   viewBox="0 0 146.99962 149.99962"
   version="1.1"
   id="svg8"
   sodipodi:docname="Logo_Vilvox.svg"
   inkscape:version="0.92.3 (2405546, 2018-03-11)"
   inkscape:export-filename="C:\Users\user\Desktop\Logo_Vilvox.png"
   inkscape:export-xdpi="93"
   inkscape:export-ydpi="93">
  <defs
     id="defs2" />
  <sodipodi:namedview
     id="base"
     pagecolor="#ffffff"
     bordercolor="#666666"
     borderopacity="1.0"
     inkscape:pageopacity="0.0"
     inkscape:pageshadow="2"
     inkscape:zoom="0.7"
     inkscape:cx="-78.419699"
     inkscape:cy="254.15864"
     inkscape:document-units="mm"
     inkscape:current-layer="layer1"
     showgrid="false"
     inkscape:window-width="1366"
     inkscape:window-height="705"
     inkscape:window-x="-8"
     inkscape:window-y="-8"
     inkscape:window-maximized="1"
     inkscape:pagecheckerboard="true"
     fit-margin-top="0"
     fit-margin-left="0"
     fit-margin-right="0"
     fit-margin-bottom="0" />
  <metadata
     id="metadata5">
    <rdf:RDF>
      <cc:Work
         rdf:about="">
        <dc:format>image/svg+xml</dc:format>
        <dc:type
           rdf:resource="http://purl.org/dc/dcmitype/StillImage" />
        <dc:title />
      </cc:Work>
    </rdf:RDF>
  </metadata>
  <g
     inkscape:label="Capa 1"
     inkscape:groupmode="layer"
     id="layer1"
     transform="translate(-30.000186,-73.500188)">
    <path
       style="opacity:1;fill:#ffffff;fill-opacity:1;stroke:none;stroke-width:0.26499999;stroke-linejoin:round;stroke-miterlimit:4;stroke-dasharray:none;stroke-opacity:1"
       d="M 30.000186,73.500188 V 223.49981 H 179.99981 V 73.500188 h -59.7395 L 105.00026,92.894352 89.740206,73.500188 Z m 11.002429,20.082493 h 31.714342 l 25.121981,47.240009 8.070312,15.48691 8.41189,-16.38711 24.8946,-46.339809 h 29.78164 l -37.65248,64.804829 0.20878,-0.0476 -26.66504,45.07736 -26.665042,-45.07736 0.271817,0.0966 z"
       id="rect815"
       inkscape:connector-curvature="0" />
    <path
       style="opacity:1;fill:#ffffff;fill-opacity:0;stroke:none;stroke-width:1.00157475;stroke-linejoin:round;stroke-miterlimit:4;stroke-dasharray:none;stroke-opacity:1"
       d="m 234.08363,406.41273 c -26.66803,-45.11758 -49.09906,-83.4761 -49.84674,-85.24112 -0.74768,-1.76504 -32.6772,-57.30282 -70.95448,-123.41731 L 43.687344,77.546151 101.40605,77.009434 c 44.55124,-0.414276 58.24343,0.04662 60.01883,2.020305 1.9206,2.1351 53.22396,98.352061 111.12385,208.407361 15.87371,30.17255 13.47753,30.31834 29.57878,-1.79952 5.57048,-11.11168 32.91564,-62.70522 60.76702,-114.65232 l 50.63886,-94.449261 h 55.27858 55.2786 L 521.236,81.081685 C 517.08506,87.691776 388.11739,310.0446 381.4983,322.00307 c -8.17565,14.77069 -96.08831,163.39674 -97.62344,165.04316 -0.71715,0.76918 -23.1232,-35.51591 -49.79123,-80.6335 z"
       id="path848"
       inkscape:connector-curvature="0"
       transform="matrix(0.26458333,0,0,0.26458333,30.000186,73.500188)" />
  </g>
</svg>
