<?xml version="1.0" encoding="UTF-8" standalone="no"?>
<!-- Created with Inkscape (http://www.inkscape.org/) -->

<svg
   xmlns:dc="http://purl.org/dc/elements/1.1/"
   xmlns:cc="http://creativecommons.org/ns#"
   xmlns:rdf="http://www.w3.org/1999/02/22-rdf-syntax-ns#"
   xmlns:svg="http://www.w3.org/2000/svg"
   xmlns="http://www.w3.org/2000/svg"
   xmlns:sodipodi="http://sodipodi.sourceforge.net/DTD/sodipodi-0.dtd"
   xmlns:inkscape="http://www.inkscape.org/namespaces/inkscape"
   width="210mm"
   height="297mm"
   viewBox="0 0 210 297"
   version="1.1"
   id="svg8"
   inkscape:version="0.92.3 (2405546, 2018-03-11)"
   sodipodi:docname="LogoDiegoAmSe.svg"
   inkscape:export-filename="C:\Users\user\Dev\diegoamse\static\img\Icon.png"
   inkscape:export-xdpi="38.659081"
   inkscape:export-ydpi="38.659081">
  <defs
     id="defs2" />
  <sodipodi:namedview
     id="base"
     pagecolor="#ffffff"
     bordercolor="#666666"
     borderopacity="1.0"
     inkscape:pageopacity="0.0"
     inkscape:pageshadow="2"
     inkscape:zoom="0.35"
     inkscape:cx="75.714284"
     inkscape:cy="711.42857"
     inkscape:document-units="mm"
     inkscape:current-layer="layer1"
     showgrid="false"
     inkscape:window-width="1366"
     inkscape:window-height="705"
     inkscape:window-x="-8"
     inkscape:window-y="-8"
     inkscape:window-maximized="1" />
  <metadata
     id="metadata5">
    <rdf:RDF>
      <cc:Work
         rdf:about="">
        <dc:format>image/svg+xml</dc:format>
        <dc:type
           rdf:resource="http://purl.org/dc/dcmitype/StillImage" />
        <dc:title />
      </cc:Work>
    </rdf:RDF>
  </metadata>
  <g
     inkscape:label="Capa 1"
     inkscape:groupmode="layer"
     id="layer1">
    <g
       id="g829">
      <path
         style="opacity:1;fill:#000000;fill-opacity:0.8643216;stroke:#000000;stroke-width:0.26499999;stroke-linejoin:round;stroke-miterlimit:4;stroke-dasharray:none;stroke-opacity:1"
         d="M 12.288903,74.75 H 159.69961 V 203.26199 H 12.288903 Z"
         id="rect815" />
      <g
         id="g821">
        <g
           aria-label="GO"
           style="font-style:normal;font-weight:normal;font-size:9.64675999px;line-height:1.25;font-family:sans-serif;letter-spacing:0px;word-spacing:0px;fill:#000000;fill-opacity:1;stroke:none;stroke-width:0.1627681"
           id="text819">
          <path
             d="m 79.772692,145.76873 q -4.788838,2.19815 -10.48049,3.84677 -5.652399,1.60936 -10.951522,1.60936 -6.829982,0 -12.521634,-1.88413 -5.691651,-1.88413 -9.695434,-5.6524 -4.043035,-3.80752 -6.24119,-9.49917 -2.198155,-5.7309 -2.198155,-13.38519 0,-14.01324 8.164576,-22.099312 8.203829,-8.125324 22.491837,-8.125324 4.985101,0 10.166467,1.216836 5.220618,1.177583 11.226292,4.043036 v 9.224404 h -0.70655 q -1.216836,-0.94207 -3.532749,-2.47293 -2.315914,-1.53086 -4.553321,-2.55143 -2.708442,-1.216834 -6.162685,-2.001889 -3.414991,-0.824309 -7.772049,-0.824309 -9.813192,0 -15.544096,6.319698 -5.691652,6.28044 -5.691652,17.0357 0,11.34405 5.966421,17.66375 5.966421,6.28044 16.250647,6.28044 3.768266,0 7.497279,-0.7458 3.768265,-0.74581 6.594465,-1.92339 V 127.51619 H 56.417294 v -6.82998 h 23.355398 z"
             style="font-size:80.38967133px;fill:#ffffff;stroke-width:0.1627681"
             id="path832" />
          <path
             d="m 136.92472,98.351383 q 3.57201,3.925277 5.45614,9.616927 1.92338,5.69165 1.92338,12.91416 0,7.22251 -1.96263,12.95342 -1.92339,5.69165 -5.41689,9.49917 -3.61125,3.96453 -8.5571,5.96642 -4.9066,2.00189 -11.22629,2.00189 -6.16269,0 -11.22629,-2.04115 -5.02436,-2.04114 -8.557108,-5.92716 -3.53275,-3.88603 -5.456135,-9.53843 -1.884133,-5.6524 -1.884133,-12.91416 0,-7.144 1.884133,-12.7964 1.884133,-5.69165 5.495387,-9.734687 3.454246,-3.846772 8.557106,-5.887916 5.14211,-2.041144 11.18704,-2.041144 6.28044,0 11.26554,2.080397 5.02436,2.041144 8.51785,5.848663 z m -0.70655,22.531087 q 0,-11.3833 -5.10286,-17.54599 -5.10286,-6.201933 -13.93473,-6.201933 -8.91038,0 -14.01324,6.201933 -5.063606,6.16269 -5.063606,17.54599 0,11.50106 5.181366,17.6245 5.18137,6.08417 13.89548,6.08417 8.71411,0 13.85623,-6.08417 5.18136,-6.12344 5.18136,-17.6245 z"
             style="font-size:80.38967133px;fill:#ffffff;stroke-width:0.1627681"
             id="path834" />
        </g>
        <g
           aria-label="("
           transform="rotate(-90)"
           style="font-style:normal;font-weight:normal;font-size:11.36050129px;line-height:1.25;font-family:sans-serif;letter-spacing:0px;word-spacing:0px;fill:#000000;fill-opacity:1;stroke:none;stroke-width:0.26458332"
           id="text823">
          <path
             d="m -156.7378,131.48063 h -10.58575 q -8.182,-9.38388 -12.71215,-20.47812 -4.53015,-11.094239 -4.53015,-25.008265 0,-13.914025 4.53015,-25.008265 4.53015,-11.09424 12.71215,-20.478117 h 10.58575 v 0.46226 q -3.7443,3.374497 -7.16503,7.812193 -3.3745,4.39147 -6.28673,10.262172 -2.77356,5.685798 -4.53015,12.527246 -1.71036,6.841447 -1.71036,14.422511 0,7.904646 1.66413,14.468735 1.71036,6.56409 4.57638,12.48102 2.77356,5.6858 6.33296,10.26217 3.5594,4.6226 7.1188,7.8122 z"
             style="font-size:94.67084503px;fill:#ffffff;stroke-width:0.26458332"
             id="path837" />
        </g>
      </g>
    </g>
  </g>
</svg>
